<?xml version="1.0" encoding="UTF-8"?>
<svg version="1.1" viewBox="0 0 2048 1365" width="2000" height="2000" xmlns="http://www.w3.org/2000/svg">
<path transform="translate(993,226)" d="m0 0h57l42 4 29 5 32 8 36 12 20 8 29 14 17 9 24 15 17 12 13 10 11 9 14 12 17 16 11 11 7 8 10 11 11 14 12 16 12 18 11 18 9 16 11 22 10 24 8 21 8 27 7 30 5 30 3 33 1 23v14l-2 36-3 25-5 28-7 29-12 37-11 27-8 17-12 22-10 17-10 15-12 17-13 16-9 11-14 15-7 8-8 7-9 9-11 9-10 9-20 15-27 18-22 13-16 8-24 11-24 9-28 8-21 4-27 3h-42l-26-3-22-4-29-9-21-10-19-12-14-11-20-20-10-13-10-15-10-18-9-19-10-27-12-41-28-96-16-55-8-25-1-11 3-13 7-11 11-11 18-11 17-8 27-9 8-2-2-6-7-11-8-9-7-9-10-11-11-14-15-16-4-4v-2l-4-2-13-13-11-9-8-8-10-8-12-10-12-9-10-7-12-7-10-7-23-11-8-7v-1l8-1h33l19 1 4 1 18 1-12-11-11-8-10-7-5-6-2-4v-7l4-8 5-4 10-3 11-1h13l22 2 24 5 27 9 21 10 21 14 14 11 15 14 10 10 9 11 13 17 7 11 2 1-4-23-6-26-7-26-8-23-8-16-7-10-5-6-2-9 2-7 6-7 4-2h12l19 6 6 1-3-10-9-16-9-14-5-11 1-3 11 7 14 10 13 11 30 30 14 19 12 20 10 20 5 12 5 15 3 10 2 3 4-2 9-16 13-21 10-14 10-13 11-13 18-18 11-9 16-12 21-13 15-7 3-1h7l7 3 5 6 2 5v8l-8 14-10 15-12 22-4 9v2l14-8 24-11 14-6 17-5 10-2h4l-2 4-5 6-10 8-9 8-4 3h-2l-2 4-7 9-8 7-14 15-16 20-6 9-6 7-7 11-6 10-2 5 1 4 5-3 8-8 8-7 11-10 14-11 19-14 21-13 16-9 19-10 13-5 9 1 7 4 4 8v10l-7 11-9 11-12 17-9 13-6 11 19-4 23-3 22-2h10l12 2 2 1v2l-12 6-21 9-14 7-6 4-16 8-6 5-7 4-14 12-1 2 16-8 3-2h11l9 6 4 8v9l-4 8-9 15-12 22-9 16-8 16-5 9-6 5-5 2h-7l-7-3-6-8-1-7 2-8 6-13v-2l-8 6-12 11-9 9v2l19 12 9 8 8 11 4 10 1 12-3 12-12 40-20 68-12 41-20 68-16 55-6 20-7 8-5 2h-9l-8-4-4-6-1-3v-9l35-119 22-75 12-41v-3l-25 8-29 7-30 5-38 4-14 1h-75l-43-4-27-4-31-7-26-8-8-3 5 15 22 76 19 63 7 21 9 20 11 21 12 17 13 15 8 7 14 11 15 9 25 10 19 5 24 4 12 1h40l25-3 30-7 21-7 23-10 16-8 19-10 19-12 19-13 14-11 13-11 12-11 10-9 8-8 7-8 10-11 8-10 15-20 11-17 8-13 12-22 10-21 11-27 9-29 7-28 6-36 3-31v-44l-3-32-5-30-7-30-8-26-11-28-10-22-12-22-10-17-13-19-12-16-11-13-9-10-7-8-19-19-8-7-14-12-17-13-19-13-20-12-24-13-25-11-27-10-29-9-26-6-25-4-18-2-17-1h-43l-27 2-28 4-25 5-30 9-32 12-28 13-26 14-17 11-16 11-17 13-11 9-15 14-25 25-7 8-13 16-14 19-14 22-12 22-14 29-12 31-8 25-6 25-6 36-2 23v60l3 29 5 27 6 25 8 26 12 31 16 33 13 23 12 18 14 19 9 11 11 13 7 7v2h2l4 5 5 5 13 12 15 13 17 13 20 14 18 11 18 10 16 8 9 5 5 4 3 6v10l-4 6-6 5-2 1h-10l-12-5-29-15-23-14-16-11-19-14-14-12-10-9-15-14-13-13-7-8-10-11-11-14-9-12-18-27-10-17-15-28-10-23-10-27-9-30-8-36-4-28-2-21-1-17v-37l2-29 5-35 7-31 8-27 9-26 10-24 8-16 10-19 10-17 16-24 12-16 11-14 14-15 7-8 18-18 8-7 10-9 10-8 17-13 20-14 24-14 23-12 19-9 28-11 28-9 32-8 36-6zm-18 242 2 11 8 29 8 32 8 39 7 41 6 39 4-1 2-8v-11l-2-18-3-30-4-28-3-23-3-14-2-13-2-14 1-2-7-11-9-10-7-7zm166-7-7 8-13 16-12 18-10 17-14 28-9 24-6 17-7 24-6 25-5 26-4 31-3 38-1 37-4 7-5 4-2 1h-11l-8-5-6-9-9-4-5-5-3-10-8-39-8-30-10-30-10-24-12-25-8-14-11-17-12-16-12-13-4-5h-2l-1-3-8-7-14-11-15-10-25-12-18-6h-3l2 4 7 8 15 16 9 11 11 13 8 6 10 6 21 21 9 10 15 25 10 22 8 27 4 25 2 16 1 3v9l-1 10 3 18 7 28-1 7-3 6-5 4-2 1h-11l-6-3-4-5-5-19-8-30-3-8-8 1-24 7-18 8-14 9-5 6-1 5 4 7 8 6 16 8 21 7 26 7 46 7 39 3h64l36-3 30-4 28-6 27-8 18-8 11-6 7-8v-6l-6-7-14-9-7-3-5 1-7 9-11 17-8 13-8 4h-8l-9-6-4-9 1-7 8-15 18-27 5-8 2-13 3-12 18-39 10-16 10-13 6-7 4-2 8-16 11-25 6-12-3-1-12 10-10 8-12 11-11 11-7 8-9 11-10 13-10 15-9 15-12 23-8 18-10 28-6 24-4 25-4 8-6 4h-13l-6-4-4-7-1-7 4-23 7-30v-15l-2-17v-14l4-43 6-26 2-10 5-11 7-16 10-19 6-9 7-7 6-24 10-28 2-4v-4z" fill="#20321E"/>
<path transform="translate(1298,470)" d="m0 0 9 1 7 4 4 8v10l-7 11-9 11-12 17-9 13-6 10-12 22-10 21-4 10-4 5-9 4-9-1-8-5-4-6v-11l15-34 6-12-4 2-14 11-14 12-14 14-7 8-9 11-10 13-10 15-9 15-12 23-8 18-10 28-6 24-4 25-4 8-7 5h-13l-6-4-4-5-2-10 4-23 7-30 8-24 9-21 12-25 13-22 11-16 10-13 12-14 3-5 5-6 8-7 17-16 14-12 16-12 17-12 27-16 23-12z" fill="#20321E"/>
<path transform="translate(1265,430)" d="m0 0h4l-2 4-5 6-10 8-9 8-4 3h-2l-2 4-7 9-8 7-14 15-16 20-6 9-6 7-7 11-6 10-2 5 1 4 2 1-9 9-3 5-12 14-13 18-12 19-10 18-11 23-10 25-4 13h-1l-3-29v-14l4-43 6-26 2-10 5-11 7-16 10-19 6-9 5-5h2l1-2 3 8 5 5 9 3 8-1 8-7 5-16 9-27 11-26 2 2 14-8 24-11 14-6 17-5z" fill="#ACCB56"/>
<path transform="translate(938,360)" d="m0 0 11 6 16 12 11 9 31 31 14 19 12 20 10 20 5 12 5 15 3 10 2 3h3l-3 9-6 12-11 29-8 25-7 25-4 18-1 11h-1l-2-12-4-43-4-28-3-23-3-14-2-13-2-15 3-1 12 12 6 3h9l6-3h2l5-10v-7l-4-9-9-11-11-12-12-12-8-7-9-7-14-10-17-9 4-1 1-2-7-16-14-22-5-11z" fill="#ACCB56"/>
<path transform="translate(700,503)" d="m0 0h33l19 1 4 1 20 1 7 6 5 5 16 17 12 14 12 16 10 15 12 19 14 26 14 29 7 18-1 3-7-9-11-14-11-12-11-14-15-16-4-4v-2l-4-2-13-13-11-9-8-8-10-8-12-10-12-9-10-7-12-7-10-7-23-11-8-7v-1z" fill="#ACCB56"/>
<path transform="translate(1339,547)" d="m0 0h10l12 2 2 1v2l-12 6-21 9-14 7-6 4-16 8-6 5-7 4-14 12-1 2 3 1-14 8-17 11-16 11-13 11-8 7-10 9-7 8-13 13-9 11-2 1-1-6 4-16 18-39 10-16 10-13 7-8 4-1 2-5h1l1 9 5 7 9 4 9-1 6-3 4-6 9-21 15-29 2-1 8-1 26-4z" fill="#ADCB57"/>
<path transform="translate(856,540)" d="m0 0 10 6 9 7 13 13 5 4 8 10 7 10 11 19 9 20 8 27 4 25 2 16 1 3v9l-1 10v5l-2-4-8-26-15-39-11-26-18-36-11-19-13-20-7-11z" fill="#ACCB56"/>
<path transform="translate(1161,557)" d="m0 0 3 3 2 1-12 12-2-1 6-11z" fill="#FEFEFE"/>
<path transform="translate(1189,538)" d="m0 0m-1 1m-1 1m-1 1m-1 1m-1 1m-1 1m-1 1m-1 1m-1 1m-1 1m-2 1 2 1-22 22v-3l6-7 8-7z" fill="#597034"/>
<path transform="translate(1268,603)" d="m0 0 2 1-4 5 3 1-12 4 1-2h2v-3z" fill="#F9FBF5"/>
</svg>
